<svg width="175" height="313" viewBox="0 0 175 313" fill="none" xmlns="http://www.w3.org/2000/svg">
<path d="M68.4444 312.738C59.9422 312.426 55.0719 312.046 46.5507 311.029C44.6802 310.806 41.428 310.427 39.3237 310.186C28.5755 308.957 15.2226 306.154 10.7528 304.189C5.8725 302.043 4.13939 301.042 2.5463 299.45C0.625938 297.53 0.509816 296.931 1.68546 295.004C2.83657 293.117 4.99101 291.812 10.2029 289.847C17.9208 286.937 28.8777 284.645 41.8744 283.219C45.3816 282.835 49.4947 282.329 51.0145 282.096C54.6979 281.531 78.5413 280.401 80.4059 280.703C81.3761 280.861 82.0282 280.747 82.3256 280.369C82.5733 280.054 83.6901 271.034 84.8074 260.323L86.8387 240.851L86.0671 238.229C85.6427 236.787 85.2645 235.557 85.2266 235.497C85.1618 235.393 78.1892 236.766 76.0242 237.309C75.0433 237.555 75.0338 237.617 75.0338 243.806C75.0338 253.838 74.3986 256.367 72.22 255.007C71.7865 254.736 71.0763 254.515 70.6417 254.515C69.5656 254.515 64.7914 257.647 64.2087 258.735C63.9499 259.218 63.3652 259.614 62.9094 259.614C62.1516 259.614 62.1032 259.399 62.3435 257.1C62.564 254.992 62.4619 254.353 61.7098 253.137C61.2166 252.339 60.3302 251.467 59.7399 251.198C59.1496 250.929 58.6667 250.535 58.6667 250.322C58.6667 250.109 60.0889 248.276 61.8273 246.248C64.1467 243.542 65.3423 241.692 66.3192 239.296C68.3426 234.335 68.5812 234.19 77.9451 232.241C84.9484 230.783 85.9948 230.459 86.2998 229.658C86.51 229.105 86.0814 223.357 85.22 215.178C84.4343 207.718 83.4794 198.46 83.0979 194.604C82.3333 186.875 82.0295 185.681 80.8275 185.681C79.7256 185.681 79.4987 184.9 79.4909 181.079L79.4843 177.821L75.7711 176.509C73.7289 175.788 69.858 174.786 67.1691 174.283C52.3406 171.51 41.1011 164.842 33.0498 154.04C24.4499 142.503 21.249 126.316 24.939 113.024C27.8122 102.673 32.0195 94.6775 45.0607 74.7829C58.7855 53.8454 64.1434 43.3035 64.9283 35.6922L65.1693 33.3552L62.7856 35.5936C59.1423 39.0147 57.2571 39.7133 51.8647 39.6405C49.4097 39.6073 46.8489 39.518 46.1742 39.442C45.1185 39.3231 44.822 39.5409 44.0486 41.0034C42.7234 43.5091 42.8452 48.2012 44.3903 54.1753C46.2807 61.4845 45.9652 62.7363 42.3408 62.3073C37.4668 61.7303 31.7557 57.199 28.8002 51.5637C27.9243 49.8937 27.2077 48.2088 27.2077 47.8195C27.2077 47.4302 26.8931 46.1503 26.5086 44.9753C25.108 40.6957 26.8831 33.2112 30.3974 28.5781C31.4179 27.2327 33.123 25.4628 34.1865 24.6448C35.8599 23.3579 36.2411 22.7573 37.0181 20.1834C39.2481 12.7958 43.1598 6.5811 47.3324 3.79615C51.1797 1.22839 53.3346 0.765721 60.6996 0.926142C66.8363 1.05981 67.047 1.0956 69.8625 2.48247C75.3408 5.18099 80.1234 10.2864 82.2109 15.6647C84.2067 20.8065 84.7782 29.7861 83.507 36.0288C81.7288 44.7609 75.1773 59.5534 63.8026 80.519C59.385 88.6613 53.9476 99.6703 51.4 105.63C48.308 112.863 47.8295 118.074 50.0184 120.674C51.2694 122.16 53.5234 122.961 55.3734 122.577C57.51 122.134 61.1535 119.948 64.1932 117.286C70.8642 111.444 75.8928 108.315 83.5436 105.244C89.3243 102.924 92.7998 102.116 99.5458 101.523C116.764 100.009 131.542 104.802 144.966 116.253C154.625 124.493 163.124 136.874 163.827 143.728C164.132 146.707 163.766 147.986 161.937 150.332C161.189 151.292 161.222 151.449 163.53 157.981C166.271 165.736 167.999 173.473 167.492 175.719C166.981 177.988 165.21 179.966 162.506 181.291C160.426 182.31 159.546 182.488 156.657 182.475C152.761 182.456 149.929 181.433 147.635 179.214L146.265 177.889L145.393 178.997C144.913 179.607 143.425 180.642 142.086 181.298C137.45 183.57 130.497 182.618 127.291 179.274L126.096 178.027L124.797 179.283C119.507 184.398 108.576 183.274 105.663 177.315C104.971 175.901 104.618 175.583 103.942 175.77C102.436 176.185 102.281 176.66 103.076 178.423C103.496 179.354 103.736 180.513 103.609 180.999C103.441 181.641 104.317 183.185 106.815 186.65C108.706 189.272 114.065 196.771 118.724 203.315C123.383 209.858 128.312 216.297 129.678 217.623C132.338 220.205 133.157 222.232 132.3 224.112C131.579 225.694 127.804 227.318 124.796 227.34C123.267 227.352 116.443 228.605 107.981 230.429L93.7391 233.498L93.3815 235.615C93.1848 236.779 92.6638 238.592 92.2236 239.643C91.6346 241.051 90.9686 245.929 89.7005 258.127C88.753 267.241 87.9349 275.972 87.8826 277.529L87.7874 280.361L96.9275 280.603C114.312 281.064 121.003 281.556 137.739 283.604C143.389 284.296 146.052 284.734 150.493 285.702C152.013 286.033 154.978 286.675 157.082 287.128C159.186 287.581 162.247 288.474 163.884 289.113C165.521 289.752 167.571 290.542 168.441 290.869C169.311 291.196 170.985 292.155 172.161 292.999C174.231 294.486 174.3 294.602 174.3 296.626C174.3 298.404 174.093 298.933 172.918 300.166C171.27 301.894 165.66 304.441 161.121 305.521C159.367 305.938 156.115 306.749 153.894 307.322C151.672 307.895 148.899 308.496 147.729 308.659C146.56 308.822 142.926 309.331 139.652 309.791C129.989 311.149 127.744 311.398 119.039 312.078C109.205 312.846 81.3143 313.21 68.4444 312.738ZM106.674 226.086C114.123 224.472 120.669 222.866 121.22 222.516C121.771 222.167 122.844 221.752 123.604 221.593C124.364 221.435 124.985 221.065 124.985 220.771C124.985 220.181 122.925 217.205 108.831 197.437C103.57 190.059 98.9735 184.013 98.6163 184.002C97.4496 183.966 96.1423 182.729 94.9424 180.526L93.7642 178.362L91.626 178.619C90.4501 178.76 89.0862 178.877 88.5952 178.879C87.7547 178.883 87.6857 179.178 87.4171 183.929C87.2041 187.695 87.3453 190.955 87.9734 196.782C88.4363 201.076 89.3158 209.561 89.9277 215.637C91.064 226.918 91.4727 229.021 92.5293 229.021C92.8594 229.021 99.2245 227.7 106.674 226.086Z" fill="#FBF0F0"/>
<path d="M70.1449 302.367C70.1449 301.812 69.9058 301.167 69.6135 300.936C68.5266 300.073 65.6006 299.414 63.0242 299.452C59.9222 299.496 59.5284 298.857 61.8238 297.504C63.8937 296.283 64.7165 294.818 64.7165 292.353C64.7165 290.414 64.8054 290.232 65.8678 289.999C66.5011 289.86 69.3964 289.788 72.3019 289.839C76.9269 289.92 77.7962 289.822 79.285 289.052C80.2203 288.568 81.2886 287.817 81.6591 287.383C82.4351 286.474 83.2013 281.113 84.8077 265.349C85.403 259.507 86.0713 253.197 86.2927 251.327C87.2515 243.233 87.2916 240.668 86.5048 237.763C85.8756 235.439 85.5978 234.971 84.8548 234.979C83.4227 234.997 74.7786 236.966 74.3778 237.367C74.1745 237.57 74.1874 238.484 74.4069 239.431C74.9409 241.733 74.9183 245.839 74.3472 250.29C73.7682 254.803 73.4816 255.397 72.3693 254.391C71.9274 253.991 71.2386 253.664 70.8385 253.664C69.6321 253.664 66.7777 255.316 64.7269 257.2L62.7943 258.976L63.0893 256.993C63.4585 254.512 62.6873 252.511 60.7902 251.027L59.41 249.948L62.4037 246.485C64.57 243.979 65.7705 242.115 66.7476 239.739C68.7891 234.775 68.6967 234.832 78.0097 232.841C86.2812 231.072 87.1597 230.687 87.1409 228.833C87.136 228.352 86.5668 222.7 85.8759 216.273C85.1851 209.847 84.2058 200.478 83.6998 195.453C83.1938 190.429 82.5918 186.079 82.362 185.787C82.1322 185.495 81.5887 185.256 81.1541 185.256C80.2061 185.256 79.964 184.373 79.8183 180.383L79.7101 177.423L76.5217 176.225C74.7681 175.566 71.0377 174.573 68.2319 174.019C54.6745 171.343 45.9171 166.938 37.9882 158.809C32.3872 153.066 29.0926 147.784 26.6579 140.641C22.0777 127.205 23.1665 115.517 30.408 100.383C33.6915 93.5207 35.6539 90.2168 44.2258 77.1191C56.3012 58.6679 61.9656 48.5302 64.1587 41.4445C65.3521 37.5887 65.9268 32.7172 65.1882 32.7172C65.034 32.7172 63.7959 33.7771 62.437 35.0727C61.0781 36.3682 59.0521 37.8346 57.9348 38.3315C55.2439 39.528 50.2698 39.8075 47.414 38.9225C45.3964 38.2974 45.2599 38.3068 44.3814 39.1318C43.8754 39.6069 43.1271 41.0578 42.7185 42.356C41.8971 44.9661 41.8169 44.3228 44.2671 54.7689C45.4262 59.7104 45.4602 60.1022 44.8148 61.0866C44.212 62.0061 43.8959 62.11 42.2606 61.9258C37.7686 61.4197 31.9749 56.7852 29.1736 51.4571C28.3262 49.8453 27.6328 48.0315 27.6328 47.4264C27.6328 46.8212 27.4035 45.469 27.1231 44.4213C26.7418 42.9962 26.7269 41.6006 27.0642 38.88C27.7172 33.6121 29.6828 29.8288 33.7293 26.0509C36.5669 23.4018 36.8913 22.9233 37.564 20.3951C37.9682 18.8761 39.2282 15.7185 40.3641 13.3781C44.6035 4.64342 50.5592 0.849792 60.0325 0.849792C66.4188 0.849792 71.5118 3.04668 76.3127 7.87239C79.8376 11.4154 81.6287 14.7523 82.938 20.2157C83.7098 23.436 83.8133 24.8384 83.6252 29.5304C83.2518 38.8482 80.9495 45.5549 71.8834 63.7353C69.1446 69.2273 66.4087 74.5811 65.8037 75.6324C60.8203 84.2913 51.7454 102.769 49.5268 108.774C47.8823 113.225 47.7682 118.507 49.2709 120.613C50.4306 122.238 52.4321 123.221 54.5835 123.221C56.6789 123.221 60.9742 120.846 65.118 117.396C71.1091 112.409 73.6074 110.664 77.6921 108.614C88.2143 103.333 94.0705 101.939 105.686 101.952C125.483 101.975 141.832 110.64 155.433 128.319C160.439 134.826 163.176 140.439 163.343 144.537C163.45 147.15 163.349 147.526 162.051 149.367L160.642 151.364L161.99 155.032C166.593 167.564 167.953 174.258 166.475 177.098C164.881 180.16 161.112 182.003 156.444 182.003C152.649 182.003 150.112 181.036 147.879 178.738L146.388 177.203L144.984 178.652C140.699 183.07 131.943 183.222 127.67 178.951C126.057 177.338 125.711 177.299 124.838 178.631C124.469 179.194 123.102 180.175 121.8 180.812C117.086 183.117 110.183 182.08 107.133 178.608C106.437 177.816 105.748 176.693 105.603 176.113C105.297 174.896 104.62 174.796 102.858 175.706C101.386 176.467 101.398 176.412 102.324 178.16C102.721 178.908 103.063 180.189 103.084 181.007C103.117 182.246 105.099 185.26 114.962 199.065C121.807 208.646 127.831 216.634 129.243 218.002C131.805 220.484 132.628 222.352 131.823 223.855C131.017 225.36 127.239 226.896 124.343 226.896C122.843 226.896 117.976 227.714 112.842 228.83C107.947 229.894 101.665 231.233 98.8828 231.806C96.1002 232.378 93.5654 233.061 93.2499 233.322C92.9344 233.584 92.6721 234.587 92.667 235.552C92.6619 236.517 92.3054 238.081 91.8748 239.029C91.4442 239.976 90.8721 242.653 90.6034 244.977C89.2797 256.43 88.1391 267.765 86.6937 283.832C86.4099 286.987 85.9327 290.178 85.6333 290.924C84.8795 292.8 82.0338 295.786 78.0097 298.921C72.1269 303.505 70.1449 304.373 70.1449 302.367ZM102.694 227.511C107.589 226.447 113.507 225.185 115.845 224.707C118.184 224.229 120.693 223.474 121.422 223.03C122.151 222.585 123.119 222.222 123.573 222.222C124.027 222.222 124.755 221.961 125.192 221.641C125.962 221.078 125.957 221.01 125.015 219.415C123.884 217.498 102.576 187.595 100.468 184.966C99.6847 183.989 98.6219 183.128 98.1065 183.054C97.591 182.98 96.7393 182.25 96.2138 181.432C93.8764 177.794 94.1526 177.968 90.9151 178.1C89.289 178.166 87.7911 178.324 87.5865 178.45C87.3819 178.577 87.0354 180.494 86.8166 182.711C86.4705 186.219 86.6293 188.758 88.0391 202.252C88.9302 210.782 89.8746 219.959 90.1377 222.647C90.6517 227.896 91.2628 229.445 92.8197 229.445C93.3554 229.445 97.7988 228.575 102.694 227.511Z" fill="#F2CBCE"/>
<path d="M70.9952 301.343C70.9952 300.645 71.5121 299.554 72.2533 298.688C73.3028 297.46 73.9068 296.154 73.4247 296.154C73.358 296.154 71.8754 296.657 70.13 297.272C68.3846 297.887 65.8087 298.467 64.4058 298.562L61.8551 298.734L63.3102 297.502C64.8515 296.196 67.1326 294.914 69.9324 293.782C71.4226 293.179 71.5277 293.052 70.7826 292.753C70.315 292.565 68.9901 292.25 67.8384 292.052C66.6868 291.855 65.6665 291.454 65.5711 291.162C65.4381 290.754 66.7663 290.63 71.2786 290.626C76.5585 290.623 77.3766 290.52 79.285 289.624C82.8495 287.951 82.7274 288.31 84.1548 275.315C87.8744 241.449 87.8687 241.526 86.9292 237.755C85.9808 233.948 86.392 234.061 79.1893 235.618C74.2442 236.687 73.3314 237.152 73.8011 238.368C74.3783 239.862 74.4692 245.776 73.9767 249.794C73.5386 253.369 73.3255 254.109 72.7661 254.001C71.9484 253.844 71.1584 252.392 70.5531 249.934C70.2938 248.881 69.9216 248.229 69.6691 248.384C69.4292 248.533 68.5989 250.02 67.8239 251.69C67.0489 253.36 65.8271 255.396 65.1088 256.214L63.8027 257.701L63.7854 255.674C63.7751 254.457 64.1927 252.603 64.831 251.033C66.501 246.926 66.3194 246.594 63.4851 248.579C59.5366 251.343 59.2712 250.715 62.7288 246.787C64.2212 245.092 65.8543 242.516 67.166 239.79C68.3076 237.418 69.4281 235.361 69.6561 235.221C69.884 235.08 73.6742 234.196 78.0788 233.256C86.336 231.495 87.5749 230.944 87.5749 229.03C87.5749 228.619 86.9973 222.856 86.2914 216.223C84.0085 194.773 83.3237 188.041 83.3237 187.049C83.3237 186.388 82.8472 185.796 81.8358 185.199L80.3478 184.322V181.017C80.3478 178.872 80.1613 177.569 79.8164 177.307C78.7119 176.465 71.4537 174.226 66.9565 173.339C55.3598 171.052 46.7791 166.839 39.4333 159.824C32.0159 152.741 27.4296 144.383 25.2937 134.055C22.9554 122.749 24.7364 112.506 31.3519 99.2138C34.4057 93.0777 36.5772 89.4793 45.0698 76.4817C56.7164 58.6571 62.0374 49.1258 64.3877 41.8783C65.3452 38.9257 65.8937 36.4068 65.8937 34.9624C65.8937 31.7867 65.1229 31.6395 62.6848 34.3498C58.9631 38.4871 53.005 40.0998 47.4283 38.4795C45.0968 37.8021 44.9299 37.8044 44.1323 38.5259C43.1719 39.3946 42.2197 41.4941 41.6623 43.9719C41.3726 45.2598 41.4296 45.9067 41.8955 46.6176C42.2346 47.1352 42.5121 47.8853 42.5121 48.2846C42.5121 48.6838 43.1231 51.564 43.8699 54.685L45.2277 60.3596L44.3448 61.242C43.4911 62.0952 43.3866 62.1021 41.1803 61.4507C38.6287 60.6974 36.5485 59.5037 34.2945 57.4994C30.5909 54.2061 27.3115 48.4887 28.0351 46.5866C28.2953 45.9024 28.2581 45.4088 27.9207 45.0709C27.6124 44.7621 27.4328 43.2326 27.4529 41.0866C27.5111 34.8734 30.3213 29.2549 35.3667 25.2644C36.8986 24.0528 37.2106 23.498 37.9011 20.758C39.7709 13.3373 44.6931 5.95593 49.3444 3.59739C53.8747 1.30018 61.2444 0.57203 65.9228 1.95939C76.8552 5.20132 83.3311 14.8023 83.3205 27.7524C83.311 39.2439 79.3964 49.3582 63.2814 79.5279C56.605 92.0273 51.2935 102.988 49.2119 108.562C47.5476 113.018 47.308 118.635 48.7026 120.505C50.0979 122.377 51.6215 123.298 53.7127 123.533C55.3936 123.722 56.1652 123.501 59.3941 121.903C61.5158 120.853 64.4164 118.941 66.1063 117.479C73.596 110.996 81.9359 106.279 89.7229 104.122C99.6416 101.375 114.994 101.932 124.744 105.391C139.19 110.518 154.225 124.117 161.14 138.314C162.518 141.144 162.82 142.236 162.917 144.748C163.027 147.609 162.958 147.868 161.644 149.504L160.255 151.234L162.127 156.454C164.935 164.285 165.695 166.832 166.445 170.929C167.274 175.452 166.939 176.861 164.516 179.05C160.076 183.059 151.833 182.633 147.754 178.183L146.403 176.708L144.505 178.605C142.113 180.996 138.868 182.063 134.949 181.749C132.006 181.513 128.293 179.783 127.221 178.148C126.411 176.912 125.601 176.923 124.776 178.181C123.706 179.813 120.249 181.43 117.226 181.712C112.082 182.192 107.032 179.685 105.834 176.057C105.395 174.726 105.218 174.594 104.216 174.84C103.598 174.991 102.661 175.394 102.134 175.735C101.199 176.339 101.193 176.392 101.878 177.937C102.263 178.807 102.603 180.201 102.633 181.033C102.678 182.298 104.707 185.372 114.97 199.729C121.726 209.179 128.057 217.621 129.038 218.489C131.457 220.631 132.128 222.277 131.173 223.733C130.155 225.285 127.107 226.471 124.133 226.471C122.767 226.471 117.761 227.319 113.008 228.356C104.977 230.109 94.0052 232.419 93.714 232.419C93.0391 232.419 92.2512 234.07 92.2512 235.484C92.2512 236.435 91.8722 237.998 91.4089 238.959C90.5348 240.771 89.4759 249.66 86.924 276.609C86.3155 283.035 85.6182 289.055 85.3745 289.985C85.0498 291.224 84.0633 292.539 81.6831 294.905C78.3971 298.171 72.6153 302.528 71.5662 302.528C71.2248 302.528 70.9952 302.051 70.9952 301.343ZM102.694 227.936C107.589 226.872 113.507 225.61 115.845 225.132C118.184 224.653 120.671 223.922 121.372 223.506C122.073 223.09 123.358 222.624 124.227 222.47C126.189 222.121 126.486 221.666 125.812 220.04C125.52 219.336 119.57 210.792 112.59 201.053C102.21 186.572 99.6583 183.265 98.5825 182.903C97.7162 182.612 96.7369 181.669 95.7141 180.14L94.161 177.82L90.7617 177.972C88.892 178.055 87.2188 178.21 87.0435 178.316C86.8681 178.421 86.7246 179.822 86.7246 181.429C86.7246 183.036 86.5463 184.819 86.3283 185.392C85.7736 186.851 90.1161 228.197 90.9264 229.173C91.7691 230.188 92.8573 230.074 102.694 227.936ZM56.4259 26.5119C56.2847 26.3707 55.918 26.3556 55.6111 26.4783C55.272 26.614 55.3727 26.7146 55.868 26.735C56.3161 26.7535 56.5672 26.653 56.4259 26.5119V26.5119ZM46.0753 23.1349C46.2204 22.7567 46.1492 22.5862 45.9082 22.735C45.677 22.8778 45.4879 23.1746 45.4879 23.3945C45.4879 24.0056 45.7926 23.871 46.0753 23.1349ZM56.8315 22.015C56.6958 21.6761 56.595 21.7767 56.5746 22.2717C56.5562 22.7196 56.6566 22.9706 56.7979 22.8294C56.9392 22.6882 56.9543 22.3217 56.8315 22.015H56.8315ZM52.4645 20.4565C52.5881 20.2565 52.2168 20.1832 51.6393 20.2936C51.0619 20.4039 50.5894 20.5675 50.5894 20.6571C50.5894 20.9858 52.2468 20.8085 52.4645 20.4565ZM48.3486 17.1641C48.2074 17.0229 47.8407 17.0078 47.5338 17.1305C47.1947 17.2662 47.2954 17.3669 47.7907 17.3873C48.2388 17.4057 48.4899 17.3053 48.3486 17.1641V17.1641ZM55.5757 17.1641C55.4344 17.0229 55.0678 17.0078 54.7609 17.1305C54.4217 17.2662 54.5225 17.3669 55.0177 17.3873C55.4659 17.4057 55.717 17.3053 55.5757 17.1641V17.1641Z" fill="#F5BBC7"/>
<path d="M71.4202 301.562C71.4202 301.265 71.9648 300.357 72.6304 299.544C76.0933 295.315 75.298 294.397 69.8885 296.378C66.3992 297.656 63.7681 298.305 63.7681 297.887C63.7681 297.72 65.7289 296.641 68.1256 295.489C70.7834 294.21 72.483 293.144 72.483 292.755C72.483 292.325 71.7219 291.958 70.1449 291.628C67.8212 291.14 67.8356 291.137 72.483 291.092C76.4624 291.054 77.4762 290.897 79.285 290.04C82.9122 288.322 83.1388 287.936 83.7133 282.49C83.9929 279.84 84.581 274.325 85.0203 270.235C88.181 240.807 88.1982 240.584 87.4733 238.451C87.1004 237.354 86.68 235.93 86.5392 235.288C86.377 234.547 86.0065 234.119 85.5275 234.119C84.7532 234.119 77.9943 235.525 75.145 236.278L73.5558 236.699L73.8219 241.046C74.2273 247.667 73.4791 254.589 72.4674 253.578C72.3165 253.427 71.8634 251.999 71.4607 250.404C70.4013 246.208 69.7558 246.435 67.0301 251.965C65.8205 254.419 64.6396 256.37 64.4058 256.301C63.7953 256.12 64.0776 254.755 65.4969 251.023C66.1828 249.219 66.7439 247.45 66.7439 247.092C66.7439 246.053 65.3471 246.336 63.752 247.699C61.3965 249.711 60.9883 249.185 63.0234 246.76C65.803 243.447 66.5601 242.235 67.8296 239.066C68.4631 237.484 69.3867 235.934 69.882 235.622C70.3773 235.309 74.1304 234.346 78.2222 233.482C82.314 232.617 86.0677 231.654 86.5638 231.341C87.7375 230.6 87.9808 229.166 87.5618 225.459C87.3739 223.795 87.0018 220.331 86.7351 217.76C84.1457 192.806 83.3335 185.992 82.8841 185.451C82.6009 185.11 82.0101 184.831 81.5711 184.831C80.8584 184.831 80.7729 184.475 80.7729 181.513C80.7729 179.489 80.5656 177.941 80.2415 177.543C79.4452 176.567 72.8155 174.395 66.1062 172.913C54.9639 170.452 46.8174 166.414 40.0867 160.018C35.0254 155.207 32.3754 151.708 29.756 146.378C23.3431 133.326 22.9693 119.719 28.6396 105.736C31.7955 97.9538 35.0593 92.2097 44.6583 77.544C59.6477 54.6426 65.2269 43.8478 66.1556 35.9503C66.4207 33.696 65.9019 31.8674 64.9972 31.8674C64.7544 31.8674 63.635 32.8743 62.5096 34.1049C58.3975 38.602 52.5409 40.0462 46.7029 38.003C45.2408 37.4913 45.0961 37.5242 44.1017 38.5946C42.2433 40.5949 40.9223 45.3122 41.87 46.5639C42.2082 47.0107 42.4911 47.7439 42.4985 48.1933C42.506 48.6428 43.1231 51.564 43.8699 54.685L45.2277 60.3596L44.3448 61.242C43.4911 62.0953 43.3865 62.1022 41.1802 61.4508C38.6287 60.6974 36.5485 59.5037 34.2945 57.4994C30.5908 54.2061 27.3115 48.4888 28.035 46.5866C28.2953 45.9024 28.258 45.4088 27.9206 45.0709C27.6123 44.7621 27.4328 43.2327 27.4529 41.0866C27.511 34.8806 30.3219 29.2544 35.3521 25.276C36.8881 24.0611 37.2603 23.3817 38.6353 19.2824C42.3113 8.32315 46.7634 3.67815 55.3387 1.85529C66.7697 -0.574599 78.3374 6.59801 81.8127 18.2706C82.1954 19.556 82.6888 22.6152 82.9091 25.069C83.98 36.9939 79.9188 47.828 61.248 82.8552C55.7302 93.2068 50.3955 104.31 48.7952 108.774C47.5681 112.197 47.3197 118.305 48.3291 120.238C50.2336 123.884 54.6132 124.722 59.1461 122.308C60.5274 121.572 61.7469 121.059 61.8561 121.168C61.9652 121.277 61.3968 122.692 60.593 124.312C57.8815 129.776 56.4389 134.874 56.3899 139.163C56.3512 142.548 56.4851 143.28 57.5334 145.422C60.1048 150.675 64.8514 152.583 71.0239 150.844C73.0283 150.28 76.3585 147.041 77.3773 144.666C77.8253 143.621 78.373 142.766 78.5943 142.766C78.8155 142.766 79.3907 143.58 79.8723 144.574C81.1564 147.225 84.9606 150.816 86.9818 151.285C89.5529 151.881 92.6155 151.757 94.2274 150.993C96.3629 149.98 99.1457 147.104 100.235 144.784C100.757 143.674 101.362 142.766 101.581 142.766C101.8 142.766 102.596 143.922 103.349 145.335C105.394 149.17 108.959 151.689 112.341 151.689C114.385 151.689 119.276 150.215 120.369 149.27C120.752 148.938 121.694 147.49 122.461 146.051C123.679 143.768 123.846 143.073 123.78 140.587C123.698 137.531 122.135 131.503 120.675 128.607C116.837 120.994 108.832 114.178 100.541 111.463C97.8407 110.579 96.0361 110.309 91.781 110.151C86.1692 109.943 83.9016 110.239 78.9712 111.827C76.0983 112.752 75.3751 112.708 75.7883 111.632C76.0694 110.9 82.7903 107.01 85.8586 105.804C94.1961 102.526 107.426 101.724 117.804 103.867C129.475 106.276 141.167 113.317 150.21 123.379C157.947 131.988 162.018 138.995 162.589 144.684C162.878 147.574 162.848 147.715 161.579 149.31C160.859 150.215 160.27 151.092 160.27 151.259C160.27 151.426 161.407 154.823 162.797 158.808C165.284 165.939 166.647 171.525 166.647 174.582C166.647 176.804 165.002 178.992 162.329 180.324C157.778 182.59 150.393 181.437 147.903 178.071C146.695 176.437 146.113 176.422 144.992 177.996C141.728 182.578 131.264 182.636 127.44 178.093C126.822 177.359 126.202 176.758 126.063 176.758C125.924 176.758 125.243 177.403 124.55 178.191C122.476 180.553 119.578 181.538 115.214 181.365C111.996 181.238 111.263 181.057 109.472 179.945C108.071 179.075 107.051 177.995 106.257 176.545C105.049 174.337 104.934 174.296 102.599 175.271C101.03 175.927 100.862 176.613 101.818 178.46C102.169 179.139 102.417 180.324 102.369 181.094C102.293 182.308 103.879 184.723 114.313 199.277C120.93 208.508 127.474 217.239 128.853 218.68C131.517 221.46 131.971 222.832 130.618 224.017C129.101 225.347 127.101 226.046 124.816 226.046C122.778 226.046 93.7401 231.975 92.7337 232.596C92.5288 232.723 92.2717 233.756 92.1625 234.892C92.0533 236.027 91.5527 237.991 91.05 239.256C90.1696 241.47 88.9807 251.58 86.0577 281.708C85.7063 285.33 85.2321 288.992 85.0039 289.847C84.4293 291.998 81.4428 295.17 76.4586 298.922C72.1856 302.139 71.4202 302.54 71.4202 301.562ZM106.966 227.31C114.621 225.669 121.113 224.136 121.393 223.904C121.672 223.673 122.861 223.198 124.036 222.849C125.211 222.501 126.291 221.908 126.435 221.531C126.586 221.138 126.181 220.012 125.481 218.879C123.667 215.943 100.297 183.394 99.743 183.032C99.4805 182.86 98.8567 182.716 98.3568 182.713C97.7049 182.708 97.0384 182.016 95.9992 180.263L94.5504 177.82L91.1689 177.711C89.3091 177.652 87.5161 177.778 87.1845 177.993C86.7548 178.271 86.4758 179.889 86.2128 183.625C85.8741 188.441 86.0138 190.466 87.9297 208.509C90.1044 228.99 90.3622 230.295 92.2342 230.295C92.6817 230.295 99.3111 228.952 106.966 227.31ZM54.587 29.9482C59.3889 28.6981 62.0676 25.7435 62.0676 21.6971C62.0676 19.2319 61.4307 17.7413 59.6611 16.065C54.4875 11.164 43.9753 12.7809 41.6888 18.8294C39.7952 23.8387 43.2903 28.9302 49.4601 30.1502C51.9875 30.65 51.874 30.6544 54.587 29.9482ZM48.4637 28.4682C48.4637 28.2345 48.762 28.0433 49.1265 28.0433C49.491 28.0433 49.671 28.2345 49.5265 28.4682C49.382 28.7019 49.0838 28.8931 48.8638 28.8931C48.6437 28.8931 48.4637 28.7019 48.4637 28.4682ZM49.9317 25.8126C49.4589 25.1723 49.1585 25.032 49.0219 25.3877C48.7418 26.1174 46.982 26.0569 46.35 25.2957C45.9903 24.8625 45.9526 24.313 46.2263 23.4922C46.4702 22.761 46.4658 21.7043 46.2147 20.7157C45.7422 18.855 46.309 17.8457 47.8265 17.8457C48.4891 17.8457 48.9473 18.2356 49.3081 19.1063C50.3988 21.7381 52.2815 21.8294 53.3382 19.302C53.8087 18.1764 54.1963 17.8457 55.0451 17.8457C56.1714 17.8457 57.1451 19.3044 56.605 20.1827C56.4613 20.4164 56.3403 21.7548 56.3361 23.157C56.3291 25.4927 56.2464 25.718 55.3485 25.8452C54.8096 25.9216 54.1055 25.7658 53.784 25.4991C53.328 25.1208 53.096 25.2071 52.7296 25.8914C52.1125 27.0439 50.8138 27.0074 49.9317 25.8126Z" fill="#F4CBB8"/>
<path d="M71.4202 301.562C71.4202 301.265 71.9648 300.357 72.6304 299.544C76.0933 295.315 75.298 294.397 69.8885 296.378C66.3992 297.656 63.7681 298.305 63.7681 297.887C63.7681 297.72 65.7289 296.641 68.1256 295.488C70.7834 294.21 72.483 293.144 72.483 292.755C72.483 292.325 71.7219 291.958 70.1449 291.628C67.8212 291.14 67.8356 291.137 72.483 291.092C76.4624 291.054 77.4762 290.897 79.285 290.04C82.9122 288.322 83.1388 287.936 83.7133 282.49C83.9929 279.84 84.581 274.325 85.0203 270.235C88.181 240.807 88.1982 240.584 87.4733 238.451C87.1004 237.354 86.68 235.93 86.5392 235.288C86.377 234.547 86.0065 234.119 85.5275 234.119C84.7532 234.119 77.9943 235.525 75.145 236.278L73.5558 236.699L73.8219 241.046C74.2273 247.667 73.4791 254.589 72.4674 253.578C72.3165 253.427 71.8634 251.999 71.4607 250.404C70.4013 246.208 69.7558 246.435 67.0301 251.965C65.8205 254.419 64.6396 256.37 64.4058 256.301C63.7953 256.12 64.0776 254.755 65.4969 251.022C66.1828 249.219 66.7439 247.45 66.7439 247.092C66.7439 246.053 65.3471 246.336 63.752 247.699C61.3965 249.711 60.9883 249.185 63.0234 246.76C65.803 243.447 66.5601 242.235 67.8296 239.066C68.4631 237.484 69.3867 235.934 69.882 235.622C70.3773 235.309 74.1304 234.346 78.2222 233.482C82.314 232.617 86.0677 231.654 86.5638 231.341C87.7375 230.6 87.9808 229.166 87.5618 225.459C87.3739 223.795 87.0018 220.331 86.7351 217.76C84.1457 192.806 83.3335 185.992 82.8841 185.451C82.6009 185.11 82.0101 184.831 81.5711 184.831C80.8584 184.831 80.7729 184.475 80.7729 181.513C80.7729 179.489 80.5656 177.941 80.2415 177.543C79.4452 176.567 72.8155 174.395 66.1062 172.913C54.9639 170.452 46.8174 166.414 40.0867 160.018C35.0254 155.207 32.3754 151.708 29.756 146.378C23.3431 133.326 22.9693 119.718 28.6396 105.736C31.7955 97.9537 35.0593 92.2096 44.6583 77.544C59.6477 54.6425 65.2269 43.8478 66.1556 35.9503C66.4207 33.696 65.9019 31.8674 64.9972 31.8674C64.7544 31.8674 63.635 32.8743 62.5096 34.1049C58.4913 38.4993 53.0102 39.9531 47.2316 38.1574C46.4371 37.9105 44.759 36.681 43.5026 35.4253C42.2462 34.1695 41.0789 33.1428 40.9086 33.1436C40.7383 33.1446 39.9994 33.5107 39.2666 33.9573C37.6072 34.9686 35.789 37.3143 35.0413 39.4085C34.3262 41.4112 34.2702 45.1297 34.9449 45.804C35.2459 46.1049 36.6926 46.3139 38.4734 46.3139C41.6347 46.3139 42.512 46.7176 42.512 48.1721C42.512 48.6332 43.1231 51.564 43.8699 54.685L45.2277 60.3596L44.3565 61.2303C43.5682 62.0182 43.3075 62.0538 41.617 61.6051C38.6262 60.8112 35.5587 58.8243 32.8411 55.9207C30.1141 53.007 28.0579 49.4005 28.0579 47.5308C28.0579 46.495 28.2321 46.3505 29.6225 46.2333L31.1871 46.1015L31.2874 43.1272C31.4507 38.2817 32.8434 35.3396 36.6173 31.8674L38.6954 29.9553L38.0125 26.6595C37.3517 23.4705 37.3592 23.2638 38.2448 20.286C40.6362 12.2447 45.1688 5.74547 49.8932 3.58372C62.9033 -2.36941 77.6937 4.43597 81.8127 18.2706C82.1954 19.5559 82.6888 22.6152 82.9091 25.069C83.98 36.9939 79.9188 47.828 61.248 82.8552C55.7302 93.2068 50.3955 104.31 48.7952 108.774C47.5681 112.197 47.3197 118.305 48.3291 120.238C50.2336 123.884 54.6132 124.722 59.1461 122.308C60.5274 121.572 61.7469 121.059 61.8561 121.168C61.9652 121.277 61.3968 122.692 60.593 124.312C57.8815 129.776 56.4389 134.874 56.3899 139.163C56.3512 142.548 56.4851 143.28 57.5334 145.422C60.1048 150.675 64.8514 152.583 71.0239 150.844C73.0283 150.28 76.3585 147.041 77.3773 144.666C77.8253 143.621 78.373 142.766 78.5943 142.766C78.8155 142.766 79.3907 143.579 79.8723 144.574C81.1564 147.225 84.9606 150.816 86.9818 151.285C89.5529 151.881 92.6155 151.757 94.2274 150.993C96.3629 149.98 99.1457 147.104 100.235 144.784C100.757 143.674 101.362 142.766 101.581 142.766C101.8 142.766 102.596 143.922 103.349 145.335C105.394 149.17 108.959 151.689 112.341 151.689C114.385 151.689 119.276 150.215 120.369 149.27C120.752 148.938 121.694 147.49 122.461 146.051C123.679 143.768 123.846 143.073 123.78 140.587C123.698 137.531 122.135 131.503 120.675 128.607C116.837 120.994 108.832 114.178 100.541 111.463C97.8407 110.579 96.0361 110.309 91.781 110.151C86.1692 109.943 83.9016 110.239 78.9712 111.827C76.0983 112.752 75.3751 112.708 75.7883 111.632C76.0694 110.9 82.7903 107.01 85.8586 105.804C94.1961 102.526 107.426 101.724 117.804 103.867C129.475 106.276 141.167 113.316 150.21 123.379C157.947 131.988 162.018 138.995 162.589 144.684C162.878 147.574 162.848 147.715 161.579 149.31C160.859 150.215 160.27 151.092 160.27 151.259C160.27 151.426 161.407 154.823 162.797 158.808C165.284 165.939 166.647 171.525 166.647 174.582C166.647 176.804 165.002 178.992 162.329 180.323C157.778 182.59 150.393 181.437 147.903 178.071C146.695 176.437 146.113 176.422 144.992 177.996C141.728 182.578 131.264 182.636 127.44 178.093C126.822 177.359 126.202 176.758 126.063 176.758C125.924 176.758 125.243 177.403 124.55 178.191C122.476 180.553 119.578 181.538 115.214 181.365C111.996 181.238 111.263 181.057 109.472 179.944C108.071 179.075 107.051 177.995 106.257 176.545C105.049 174.337 104.934 174.296 102.599 175.271C101.03 175.927 100.862 176.613 101.818 178.46C102.169 179.139 102.417 180.324 102.369 181.094C102.293 182.308 103.879 184.723 114.313 199.277C120.93 208.508 127.474 217.239 128.853 218.68C131.517 221.46 131.971 222.832 130.618 224.017C129.101 225.347 127.101 226.046 124.816 226.046C122.778 226.046 93.7401 231.975 92.7337 232.596C92.5288 232.723 92.2717 233.756 92.1625 234.892C92.0533 236.027 91.5527 237.991 91.05 239.256C90.1696 241.47 88.9807 251.58 86.0577 281.708C85.7063 285.33 85.2321 288.992 85.0039 289.847C84.4293 291.998 81.4428 295.17 76.4586 298.922C72.1856 302.139 71.4202 302.54 71.4202 301.562ZM106.966 227.31C114.621 225.669 121.113 224.136 121.393 223.904C121.672 223.673 122.861 223.198 124.036 222.849C125.211 222.501 126.291 221.907 126.435 221.531C126.586 221.138 126.181 220.012 125.481 218.879C123.667 215.943 100.297 183.394 99.743 183.032C99.4805 182.86 98.8567 182.716 98.3568 182.713C97.7049 182.708 97.0384 182.016 95.9992 180.263L94.5504 177.82L91.1689 177.711C89.3091 177.652 87.5161 177.778 87.1845 177.993C86.7548 178.271 86.4758 179.889 86.2128 183.625C85.8741 188.441 86.0138 190.466 87.9297 208.509C90.1044 228.99 90.3622 230.295 92.2342 230.295C92.6817 230.295 99.3111 228.952 106.966 227.31ZM54.587 29.9481C59.3889 28.6981 62.0676 25.7435 62.0676 21.6971C62.0676 19.2319 61.4307 17.7412 59.6611 16.0649C54.4875 11.1639 43.9753 12.7809 41.6888 18.8294C39.7952 23.8387 43.2903 28.9302 49.4601 30.1502C51.9875 30.6499 51.874 30.6544 54.587 29.9481ZM49.9317 25.8126C49.4589 25.1723 49.1585 25.0319 49.0219 25.3877C48.7418 26.1174 46.982 26.0568 46.35 25.2957C45.9903 24.8625 45.9526 24.313 46.2263 23.4922C46.4702 22.761 46.4658 21.7043 46.2147 20.7157C45.7422 18.855 46.309 17.8457 47.8265 17.8457C48.4891 17.8457 48.9473 18.2355 49.3081 19.1063C50.3988 21.738 52.2815 21.8294 53.3382 19.3019C53.8087 18.1764 54.1963 17.8457 55.0451 17.8457C56.1714 17.8457 57.1451 19.3044 56.605 20.1827C56.4613 20.4163 56.3403 21.7548 56.3361 23.1569C56.3291 25.4927 56.2464 25.718 55.3485 25.8452C54.8096 25.9215 54.1055 25.7658 53.784 25.4991C53.328 25.1208 53.096 25.2071 52.7296 25.8914C52.1125 27.0439 50.8138 27.0073 49.9317 25.8126Z" fill="#F2AAB5"/>
<path d="M85.107 274.697C85.1157 273.996 85.211 273.76 85.3187 274.174C85.4265 274.587 85.4194 275.161 85.303 275.449C85.1865 275.736 85.0983 275.398 85.107 274.697H85.107ZM85.8744 267.686C85.8744 267.219 86.0657 266.836 86.2995 266.836C86.5333 266.836 86.7246 267.219 86.7246 267.686C86.7246 268.154 86.5333 268.536 86.2995 268.536C86.0657 268.536 85.8744 268.154 85.8744 267.686ZM87.5749 253.69C87.5749 253.236 87.7662 252.747 88 252.602C88.2411 252.453 88.4251 252.81 88.4251 253.427C88.4251 254.025 88.2338 254.514 88 254.514C87.7662 254.514 87.5749 254.143 87.5749 253.69ZM88.4587 249.593C88.4791 249.098 88.5798 248.997 88.7155 249.336C88.8383 249.643 88.8232 250.009 88.682 250.15C88.5407 250.291 88.4402 250.04 88.4587 249.593H88.4587ZM88.8838 245.344C88.9042 244.849 89.0049 244.748 89.1406 245.087C89.2634 245.394 89.2483 245.76 89.1071 245.901C88.9658 246.042 88.8653 245.791 88.8838 245.344H88.8838ZM67.4405 241.98C67.575 241.629 67.7603 241.342 67.8522 241.342C67.9441 241.342 68.0193 241.629 68.0193 241.98C68.0193 242.33 67.834 242.617 67.6075 242.617C67.3811 242.617 67.3059 242.33 67.4405 241.98ZM70.6675 237.864C70.9298 237.077 71.7138 236.988 71.9922 237.713C72.1686 238.172 71.9829 238.368 71.3715 238.368C70.8871 238.368 70.574 238.144 70.6675 237.864ZM90.4209 237.672C89.9895 237.241 90.06 235.484 90.5201 235.2C91.0801 234.854 91.526 236.521 91.0845 237.309C90.8819 237.671 90.5833 237.834 90.4209 237.672ZM87.2914 233.888C87.2914 233.548 87.4509 233.269 87.6457 233.269C87.8406 233.269 88 233.449 88 233.669C88 233.889 87.8406 234.167 87.6457 234.288C87.4509 234.408 87.2914 234.228 87.2914 233.888ZM90.3862 231.067C90.509 230.869 90.7875 230.816 91.0052 230.951C91.5614 231.294 91.4988 231.428 90.782 231.428C90.4415 231.428 90.2635 231.266 90.3862 231.067ZM112.357 227.055C112.503 226.908 113.444 226.718 114.447 226.632C115.806 226.516 116.054 226.576 115.42 226.869C114.46 227.312 111.947 227.464 112.357 227.055ZM88.8838 226.223C88.9042 225.728 89.0049 225.627 89.1406 225.966C89.2634 226.273 89.2483 226.64 89.1071 226.781C88.9658 226.922 88.8653 226.671 88.8838 226.223H88.8838ZM121.159 225.246C121.159 225.039 121.542 224.77 122.01 224.648C122.562 224.504 122.86 224.635 122.86 225.024C122.86 225.352 122.477 225.621 122.01 225.621C121.542 225.621 121.159 225.452 121.159 225.246ZM128.431 222.683C127.535 222.116 128.212 220.947 129.436 220.947C130.3 220.947 130.512 221.156 130.512 222.009C130.512 223.124 129.595 223.42 128.431 222.683ZM122.066 212.405C121.513 211.705 121.151 211.041 121.263 210.93C121.375 210.818 121.981 211.401 122.61 212.225C123.239 213.05 123.6 213.713 123.413 213.7C123.226 213.688 122.62 213.104 122.066 212.405ZM118.222 207.185C117.954 206.51 117.82 205.872 117.925 205.768C118.237 205.455 119.104 207.356 118.899 207.905C118.795 208.184 118.491 207.86 118.222 207.185ZM115.916 203.668C115.76 203.512 115.633 203.187 115.633 202.946C115.633 202.679 115.831 202.705 116.136 203.009C116.413 203.286 116.54 203.611 116.419 203.732C116.298 203.853 116.072 203.824 115.916 203.668ZM85.534 200.127C85.534 199.543 85.6872 198.587 85.8744 198.003L86.2147 196.94V198.003C86.2147 198.587 86.0616 199.543 85.8744 200.127L85.534 201.189V200.127ZM105.642 189.505C105.498 189.271 105.582 189.08 105.83 189.08C106.078 189.08 106.28 189.271 106.28 189.505C106.28 189.738 106.196 189.93 106.093 189.93C105.99 189.93 105.787 189.738 105.642 189.505ZM83.3583 185.51C83.0862 185.182 82.4007 184.798 81.8348 184.656C80.8577 184.411 80.7997 184.212 80.6831 180.703L80.5604 177.007L77.1594 175.8C75.2889 175.135 71.9411 174.116 69.7198 173.535C59.3542 170.824 57.5386 170.261 53.6653 168.553C38.6117 161.916 28.1703 148.359 25.5141 132.002C24.8743 128.062 24.9929 120.224 25.7484 116.511C27.9057 105.907 32.4552 96.875 46.3396 75.6319C57.4173 58.683 62.6855 49.288 64.844 42.632C66.4987 37.5293 66.9429 34.7799 66.4113 32.9296C65.8397 30.9398 64.8801 31.1556 62.1907 33.8784C58.3247 37.7924 53.9852 39.2587 49.2094 38.2648C47.0772 37.8211 46.4509 37.436 44.2845 35.2368C42.9193 33.851 41.6082 32.7172 41.3709 32.7172C40.4105 32.7172 37.2279 35.2695 36.1055 36.94C34.585 39.2027 33.7359 42.8121 34.2778 44.7085C34.6701 46.0812 34.7159 46.1031 37.4249 46.2102C41.6845 46.3786 42.0115 46.5206 42.3195 48.3356C42.4678 49.2101 43.1481 52.1804 43.8313 54.9362C45.2519 60.6671 45.1084 61.6105 42.816 61.61C38.7613 61.609 31.9628 56.205 29.3689 50.9213C27.6582 47.4368 27.7409 46.5264 29.7682 46.5264H31.2464L31.4986 42.8426C31.8257 38.0672 33.1521 35.2487 36.4586 32.3032C37.777 31.1287 39.0217 30.1678 39.2246 30.1678C39.4275 30.1678 39.4806 29.8122 39.3426 29.3775C39.2046 28.9429 38.8169 27.2748 38.4811 25.6706C37.8782 22.7907 37.8867 22.7053 39.1522 18.9189C41.4939 11.9129 44.9346 6.91099 49.1014 4.45518C51.4489 3.07167 56.6733 1.69958 59.5937 1.69958C66.5286 1.69958 73.005 4.9343 77.4193 10.6028C80.8662 15.0292 82.2294 19.0171 82.7273 26.1313C83.4587 36.5817 78.5158 49.8561 63.5832 77.544C57.9595 87.9713 50.7473 102.643 48.8579 107.499C47.608 110.712 47.4499 111.589 47.4268 115.432C47.4044 119.175 47.52 119.914 48.2903 120.956C50.5981 124.076 54.3754 124.937 58.1817 123.211C60.5661 122.13 60.9549 122.152 60.1861 123.327C59.8419 123.853 58.8537 126.482 57.99 129.169C56.244 134.602 55.6285 140.654 56.4951 143.87C57.496 147.585 60.8123 150.776 64.6202 151.689C69.3601 152.826 74.8871 150.223 77.2509 145.74C78.3949 143.571 78.9463 143.2 79.3554 144.324C79.9173 145.868 82.2275 148.74 84.0487 150.159C85.5891 151.358 86.4018 151.655 88.7944 151.896C90.4827 152.065 92.3732 151.998 93.3479 151.735C95.5489 151.139 99.1699 147.92 100.328 145.528C100.838 144.476 101.411 143.616 101.601 143.616C101.792 143.616 102.525 144.638 103.23 145.887C105.289 149.533 108.994 152.114 112.17 152.114C114.451 152.114 119.455 150.532 120.642 149.436C121.981 148.2 124.551 142.94 124.604 141.328L124.647 140.004L125.022 141.279C125.228 141.98 125.591 143.34 125.83 144.302C126.709 147.852 130.414 150.107 135.443 150.153C138.061 150.177 138.837 149.991 141.289 148.747L144.116 147.313L146.955 148.753C149.488 150.038 150.142 150.188 153.03 150.145C156.669 150.091 159.167 149.106 161.214 146.916C162.143 145.921 162.442 145.791 162.637 146.297C162.916 147.024 161.936 149.136 160.936 149.966C160.57 150.27 160.27 150.854 160.27 151.265C160.27 151.675 161.321 155.008 162.605 158.67C165.189 166.039 166.845 173.235 166.446 175.358C166.111 177.147 164.432 179.109 162.236 180.279C160.805 181.041 159.78 181.214 156.657 181.216C153.265 181.219 152.589 181.085 150.7 180.038C149.529 179.389 148.19 178.29 147.725 177.596C147.26 176.903 146.688 176.335 146.454 176.334C146.22 176.333 145.494 177.003 144.841 177.821C142.809 180.366 140.664 181.213 136.251 181.213C131.894 181.213 129.756 180.384 127.354 177.764L126.007 176.295L124.641 177.795C122.249 180.423 120.215 181.213 115.845 181.213C112.745 181.213 111.697 181.04 110.319 180.302C108.182 179.156 106.93 177.825 106.082 175.796C105.717 174.923 105.284 174.208 105.12 174.208C104.228 174.208 101.199 175.666 100.997 176.192C100.868 176.53 101.133 177.534 101.586 178.423C102.285 179.792 102.338 180.276 101.934 181.59C101.599 182.682 101.259 183.087 100.787 182.956C100.418 182.854 99.5052 182.647 98.7589 182.497C97.675 182.28 97.1393 181.76 96.0982 179.916L94.7946 177.608H91.0572C88.7172 177.608 87.1291 177.798 86.8096 178.117C86.5119 178.415 86.2995 179.842 86.2995 181.545C86.2995 183.149 86.1015 184.832 85.8594 185.284C85.3446 186.245 84.065 186.361 83.3583 185.51ZM57.865 29.4537C63.5358 26.2681 64.5936 20.0108 60.203 15.6225C56.1122 11.5339 48.3148 11.3092 43.8246 15.1507C39.4965 18.8535 39.3449 24.0497 43.4512 27.9509C45.7639 30.1481 48.5132 31.0557 52.3384 30.8846C54.9893 30.7661 55.9899 30.507 57.865 29.4537ZM50.2493 25.6214C49.4677 24.549 49.3739 24.5235 48.6977 25.1994C47.1615 26.7348 46.6413 25.9204 46.5319 21.8084C46.447 18.6162 46.8842 17.5927 48.1289 18.07C48.4716 18.2015 49.0219 18.9218 49.3518 19.6708C49.8251 20.745 50.2455 21.0607 51.3435 21.1664C52.5895 21.2862 52.8023 21.1397 53.3762 19.767C54.0824 18.0777 54.9813 17.5058 55.8274 18.2076C56.6799 18.9147 56.4709 25.099 55.5755 25.6636C55.0717 25.9812 54.678 25.9035 54.088 25.3698C53.1047 24.4803 52.715 24.451 52.715 25.2665C52.715 25.6088 52.3474 26.0855 51.8981 26.3259C51.2292 26.6837 50.9305 26.5561 50.2493 25.6214ZM123.331 134.48C120.369 125.795 116.033 120.01 108.839 115.146C100.789 109.703 90.1184 108.187 80.2351 111.082C75.9712 112.331 76.0966 112.31 76.0966 111.752C76.0966 111.521 78.0575 110.335 80.4541 109.116L84.8116 106.902L89.7553 106.732C93.7829 106.594 95.3586 106.729 98.2578 107.461C108.695 110.095 117.634 117.328 121.989 126.665C123.536 129.981 124.66 134.231 124.479 136.081C124.359 137.316 124.242 137.153 123.331 134.48Z" fill="#F19AAD"/>
<path d="M110.71 179.994C108.332 178.887 107.006 177.468 106.271 175.244C106.006 174.441 105.533 173.783 105.22 173.783C104.165 173.783 100.738 175.455 100.495 176.087C100.122 177.058 96.3119 178.188 95.2771 177.634C93.923 176.91 87.5105 177.063 86.3918 177.846C85.1989 178.681 81.7592 178.263 80.7913 177.166C80.4305 176.757 77.7664 175.635 74.8712 174.673C68.8072 172.658 66.8706 171.403 62.4924 166.654C58.8863 162.743 55.7152 156.668 54.5695 151.476C53.3495 145.948 53.7918 137.111 55.4482 133.917C55.8674 133.109 55.9274 133.804 55.7784 137.741C55.5662 143.347 56.0008 145.397 57.9342 147.91C62.887 154.345 72.6519 153.729 77.1823 146.696C77.822 145.703 78.5041 144.89 78.698 144.89C78.892 144.89 79.3315 145.433 79.6747 146.097C80.018 146.76 81.4531 148.371 82.8639 149.676C85.1487 151.791 85.688 152.082 87.8003 152.346C91.9105 152.859 93.9551 152.444 96.4462 150.591C98.4351 149.111 101.179 145.764 101.179 144.818C101.179 144.004 101.892 144.569 102.657 145.989C103.743 148.006 106.487 150.71 108.473 151.723C110.562 152.788 113.534 152.765 117.129 151.655C120.396 150.647 121.389 149.801 123.32 146.381L124.697 143.942L125.317 145.16C126.231 146.957 127.951 148.673 129.874 149.706C131.253 150.447 132.299 150.621 135.401 150.623C138.939 150.626 139.411 150.522 141.671 149.242L144.116 147.857L146.487 149.195C150.655 151.546 155.965 151.366 159.876 148.741C162.516 146.969 162.549 147.297 160.071 150.669C159.784 151.059 160.522 153.795 162.49 159.639C165.298 167.979 166.566 173.629 166.072 175.597C165.298 178.68 161.342 180.996 156.839 181.003C152.916 181.008 150.424 180.055 148.421 177.781C147.514 176.751 146.58 175.908 146.345 175.908C146.11 175.908 145.391 176.598 144.748 177.441C143.07 179.639 139.907 180.998 136.464 181C132.421 181.003 130.688 180.372 128.151 177.973L125.922 175.866L124.132 177.775C121.969 180.081 119.536 181.008 115.663 181.003C113.624 181 112.286 180.727 110.71 179.994ZM120.727 127.17C118.928 123.973 118.294 123.162 114.872 119.684C107.531 112.223 98.8104 108.783 88.646 109.338C86.0694 109.479 82.8445 109.898 81.4796 110.269C77.6816 111.302 77.7549 110.828 81.6805 108.97L85.2367 107.287L90.5507 107.302C94.7312 107.314 96.5712 107.519 99.177 108.262C106.856 110.451 113.764 115.303 118.435 121.788C120.251 124.311 122.656 129.09 122.292 129.454C122.193 129.552 121.489 128.525 120.727 127.17V127.17ZM40.2996 61.011C35.9559 59.461 31.5221 55.3055 29.3136 50.7146C27.6487 47.2538 27.6849 46.821 29.6521 46.6582C31.1404 46.5351 31.2538 46.4275 31.3579 45.0392C31.6289 41.4247 32.4396 37.8974 33.3632 36.3142C34.8366 33.7885 38.4955 30.5062 39.6542 30.6709C41.1468 30.8829 40.8652 32.4794 39.129 33.6488C35.9334 35.8012 34.0101 39.4483 34.0185 43.3396C34.0248 46.2504 34.3377 46.4968 38.3364 46.7388C41.8154 46.9494 41.8491 46.9624 42.169 48.226C44.037 55.6031 44.8685 59.912 44.5763 60.7013C44.1817 61.7675 42.7168 61.8736 40.2996 61.011ZM50.1547 25.2563C49.7453 24.1803 49.6686 24.1512 48.9509 24.8005C47.3821 26.2194 46.1075 25.3837 46.8371 23.4144C47.0697 22.7865 47.0419 21.8763 46.7645 21.0361C45.8356 18.2232 47.9388 17.0421 49.0677 19.7426C50.1336 22.2923 52.4223 22.2201 53.6801 19.5971C53.9914 18.948 54.5668 18.4831 55.0588 18.4831C55.8299 18.4831 55.907 18.7881 55.9447 21.9885C55.9807 25.0402 55.8912 25.4939 55.2528 25.4939C54.8495 25.4939 54.2814 25.2071 53.9903 24.8565C53.2728 23.9924 52.99 24.0523 52.4969 25.1727C51.8745 26.5869 50.6771 26.6296 50.1547 25.2563Z" fill="#EC7692"/>
<path d="M40.2996 61.011C35.9559 59.461 31.5221 55.3055 29.3136 50.7146C27.6487 47.2538 27.6849 46.821 29.6521 46.6582C31.1404 46.5351 31.2538 46.4275 31.3579 45.0392C31.834 38.6892 32.9978 35.8764 36.5064 32.5963C38.8042 30.4481 39.5328 30.202 40.4228 31.2738C40.9145 31.8659 40.6978 32.2052 38.7653 33.8693C35.622 36.576 34.358 38.912 34.141 42.4154C34.0444 43.9753 34.1591 45.5385 34.396 45.889C34.6978 46.3357 35.8767 46.5899 38.3364 46.7388C41.8154 46.9494 41.8491 46.9624 42.169 48.2259C44.037 55.6031 44.8685 59.912 44.5763 60.7013C44.1817 61.7675 42.7168 61.8736 40.2996 61.011ZM50.1546 25.2563C49.7453 24.1803 49.6686 24.1512 48.9509 24.8004C47.3884 26.2138 46.1072 25.3848 46.8314 23.4292C47.0518 22.8341 47.0321 21.8094 46.7831 20.908C46.0311 18.1858 47.9975 17.1827 49.0677 19.7426C50.1592 22.3536 52.3975 22.213 53.8304 19.4436C54.2237 18.6834 54.7379 18.2704 55.184 18.3563C55.784 18.4718 55.9076 19.0472 55.9291 21.8261C55.9573 25.4674 55.4793 26.2033 53.9719 24.8398C53.5115 24.4234 53.0882 24.1613 53.0312 24.2572C52.9742 24.3531 52.7157 24.814 52.4568 25.2814C51.733 26.5882 50.6568 26.5764 50.1546 25.2563Z" fill="#897670"/>
<path d="M40.7645 60.7856C37.0147 59.6204 31.5501 54.5459 29.5935 50.4121C28.9828 49.1218 28.4831 47.8631 28.4831 47.615C28.4831 47.3668 29.1459 47.1638 29.9561 47.1638C31.8141 47.1638 32.1467 46.5226 32.2271 42.7861C32.3237 38.2963 34.4348 34.2789 37.903 31.9849C39.3159 31.0504 39.6666 30.9638 39.986 31.4705C40.263 31.9099 40.0463 32.3137 39.2092 32.9179C35.6003 35.5232 33.5951 39.1799 33.5887 43.1676C33.583 46.6993 34.14 47.1638 38.3814 47.1638H41.6233L41.8988 48.7571C42.0504 49.6335 42.6431 52.2415 43.216 54.5527C44.4786 59.6467 44.423 60.9416 42.9372 61.0517C42.3527 61.0951 41.3749 60.9753 40.7645 60.7856ZM50.512 24.8566C49.9621 23.6504 49.2374 23.5 48.4638 24.4317C47.5471 25.5355 47.3792 25.1553 47.3291 21.8622C47.3022 20.0984 47.4394 18.7122 47.6339 18.7817C47.8284 18.8511 48.4361 19.5772 48.9842 20.3951C50.5579 22.7432 53.1689 22.508 54.0655 19.9373C54.8889 17.5767 55.5557 18.465 55.5257 21.8823C55.4973 25.1178 55.1033 25.772 53.9903 24.4317C53.2014 23.4815 52.4159 23.6595 52.1153 24.8566C51.9686 25.4408 51.6568 25.9188 51.4224 25.9188C51.188 25.9188 50.7784 25.4408 50.512 24.8566Z" fill="#605752"/>
<path d="M40.7645 60.3517C37.0614 59.2313 31.9553 54.5038 30.0107 50.3955C29.4043 49.1144 28.9082 47.9588 28.9082 47.8274C28.9082 47.6961 29.4587 47.5887 30.1315 47.5887C31.8939 47.5887 32.2767 46.8611 32.4992 43.0886C32.7526 38.7931 34.5686 34.9488 37.3408 32.8397C39.8848 30.9041 40.4504 31.5412 37.9456 33.5211C36.818 34.4124 35.3601 36.1397 34.6516 37.4241C33.5516 39.4177 33.3798 40.1686 33.3762 42.9987C33.3733 45.114 33.5666 46.4648 33.9229 46.8228C34.2429 47.1443 35.9253 47.4652 37.9383 47.5887L41.4028 47.8011L41.9218 50.6213C42.2072 52.1724 42.8498 54.8985 43.3498 56.6793C43.8497 58.4601 44.1414 60.1069 43.998 60.3388C43.696 60.8273 42.3541 60.8326 40.7645 60.3517V60.3517ZM50.6667 24.4317C50.1029 23.1949 49.473 23.094 48.3961 24.068C47.6615 24.7325 47.6286 24.6859 47.72 23.1119C47.7729 22.202 47.6713 20.9316 47.4942 20.2889C47.0392 18.6377 47.7458 18.8368 48.5854 20.5965C49.7746 23.089 52.9713 23.0238 54.2397 20.481C55.0621 18.8323 55.1709 19.0043 55.1113 21.8596C55.0548 24.5666 54.7614 25.3082 54.2617 24.0068C53.8636 22.9698 52.3165 23.2441 51.8647 24.4317C51.6425 25.0159 51.391 25.494 51.3058 25.494C51.2206 25.494 50.9331 25.0159 50.6667 24.4317Z" fill="#413C37"/>
</svg>
