<svg width="482" height="146" viewBox="0 0 482 146" fill="none" xmlns="http://www.w3.org/2000/svg">
<path d="M365.438 145.098C362.058 144.583 357.053 142.949 354.788 141.62C352.312 140.168 349.39 136.936 348.184 134.315C347.373 132.555 347.211 131.374 347.211 127.224C347.211 122.512 347.29 122.083 348.685 119.24C352.549 111.36 361.091 107.916 367.989 111.458C369.58 112.274 371.145 113.535 372.057 114.736C373.884 117.141 373.946 117.968 372.301 117.981C370.26 117.998 368.138 120.268 368.138 122.434C368.138 122.934 368.6 123.882 369.165 124.541C370.047 125.57 370.538 125.737 372.626 125.721C374.551 125.706 375.442 125.434 376.887 124.42C381.879 120.918 384.932 111.899 385.557 98.8111C385.874 92.1891 385.545 91.8025 383.703 96.627C381.337 102.82 377.576 106.368 372.476 107.217C366.052 108.285 359.411 105.726 353.765 100.005C346.58 92.7267 343.711 82.378 344.76 67.5271C345.401 58.4539 346.854 52.6096 349.969 46.5761C352.812 41.0705 356.325 37.5484 361.387 35.1265C364.016 33.869 364.746 33.7263 368.588 33.7193C372.344 33.7123 373.168 33.8614 375.368 34.9463C378.024 36.2554 380.542 38.4241 382.854 41.3919C383.629 42.3859 384.413 43.0484 384.597 42.8642C384.781 42.68 384.596 40.8137 384.186 38.7169C383.206 33.7093 383.212 32.8466 384.227 33.2502C387.978 34.7416 398.923 35.4835 408.192 34.8747L411.118 34.6825L411.092 36.2301C411.077 37.0812 410.727 40.8272 410.313 44.5545C409.345 53.2731 408.724 65.9386 408.184 87.9269C407.744 105.829 407.433 109.202 405.554 116.48C400.934 134.372 389.234 144.684 372.864 145.292C370.141 145.393 366.799 145.306 365.438 145.098H365.438ZM380.102 85.4187C381.046 84.8332 382.06 83.5434 382.856 81.9173C384.098 79.3768 384.115 79.2323 384.105 70.9846C384.097 64.3915 383.921 61.9348 383.269 59.3517C382.338 55.6614 380.405 52.6205 378.718 52.1957C375.767 51.4521 373.869 53.461 371.851 59.4638C370.75 62.7378 370.638 63.6738 370.669 69.4033C370.713 77.7958 371.923 82.9164 374.463 85.4661C375.62 86.6282 378.187 86.6066 380.102 85.4187V85.4187ZM122.863 113.389C116.335 112.307 110.45 107.574 107.203 100.796C103.943 93.9914 102.609 86.727 102.613 75.8087C102.619 59.8301 106.302 48.0281 113.637 40.4829C121.284 32.6159 132.751 32.7745 140.539 40.855C141.968 42.3385 143.274 43.4154 143.441 43.2482C143.608 43.0809 143.503 41.2879 143.21 39.2637C142.916 37.2396 142.762 35.4964 142.868 35.3901C142.974 35.2837 144.725 35.4217 146.76 35.6965C148.794 35.9714 154.578 36.1963 159.613 36.1963C166.641 36.1963 168.766 36.3275 168.759 36.761C168.755 37.0716 168.462 38.9638 168.109 40.9659C166.534 49.9033 165.969 59.9419 166.19 75.0507C166.416 90.5159 166.972 96.6883 168.952 105.701C169.824 109.67 169.881 110.411 169.329 110.623C168.973 110.76 166.726 110.745 164.336 110.589C161.947 110.433 157.156 110.521 153.691 110.785C150.226 111.049 146.884 111.3 146.265 111.343L145.14 111.42L144.915 103.288C144.71 95.8766 144.634 95.2758 144.06 96.511C140.035 105.17 139.365 106.338 137.065 108.703C133.11 112.77 128.435 114.313 122.863 113.389V113.389ZM139.42 87.9374C142.649 85.2101 143.704 79.6672 143.491 66.5518C143.348 57.7203 143.282 57.1029 142.285 55.3569C141.012 53.1279 139.266 52.0091 137.06 52.0091C132.045 52.0091 129.58 56.5396 128.635 67.4979C127.5 80.6507 130.418 89.0564 136.12 89.0564C137.565 89.0564 138.451 88.7562 139.42 87.9374ZM442.846 112.751C436.236 111.326 429.61 106.773 426.077 101.229C418.977 90.0849 416.898 70.618 421.277 56.2752C424.777 44.8134 433.302 35.8932 443.296 33.2367C447.176 32.2054 454.72 32.1716 458.474 33.1687C466.534 35.3094 472.395 40.4475 476.629 49.0831C480.266 56.4998 482.355 66.9089 481.751 74.5989C481.38 79.3111 479.905 86.8331 478.563 90.8573C474.612 102.701 466.633 110.653 456.572 112.774C452.674 113.595 446.717 113.586 442.846 112.751V112.751ZM453.128 90.6047C454.837 89.5879 456.568 86.9747 457.761 83.6112C458.681 81.0165 458.796 79.8589 458.808 73.0177C458.835 58.8193 455.872 51.1056 450.393 51.1056C445.415 51.1056 441.935 60.1178 441.954 72.9639C441.958 75.9753 442.246 79.7874 442.594 81.4351C443.588 86.143 445.962 90.1578 448.247 90.9963C449.591 91.4899 451.959 91.2999 453.128 90.6047V90.6047ZM305.526 112.343C305.379 112.196 305.74 110.2 306.328 107.908C309.318 96.2459 310.695 84.4861 310.73 70.3069C310.763 57.0253 310.036 53.1838 307.127 51.2703C304.602 49.6092 300.251 52.6156 297.886 57.6566C295.86 61.9732 295.518 65.5996 296.093 76.6974C296.735 89.1068 298.107 99.6336 300.3 108.975C300.368 109.261 296.718 109.478 290.28 109.569C284.711 109.647 277.875 109.977 275.09 110.301C272.304 110.625 269.921 110.786 269.794 110.658C269.666 110.53 269.866 108.311 270.237 105.727C272.724 88.4148 273.279 52.5137 271.309 36.4208C271.02 34.0581 270.874 32.0335 270.986 31.9217C271.097 31.8099 273.712 32.0243 276.796 32.3981C280.351 32.8288 285.288 33.0324 290.28 32.9542C297.893 32.8348 298.153 32.8605 298.055 33.7228C297.525 38.4235 297.408 40.7142 297.699 40.7142C297.89 40.7142 299.424 39.4095 301.108 37.8148C303.175 35.8572 305.448 34.2796 308.105 32.958C311.964 31.0383 312.127 31.0007 316.574 31.0058C320.47 31.0104 321.423 31.1667 323.34 32.1163C326.503 33.6833 328.863 36.2525 330.561 39.9782C333.526 46.4858 334.381 52.5401 334.394 67.1325C334.4 72.8542 334.594 82.1101 334.827 87.701C335.193 96.4556 335.562 100.252 336.936 109.388L337.173 110.97L328.241 111.012C320.437 111.05 311.448 111.631 307.15 112.376C306.403 112.505 305.672 112.49 305.526 112.343V112.343ZM0.663088 110.552C1.41934 107.993 3.18791 99.004 4.00335 93.5744C5.86522 81.1771 6.47522 71.607 6.46557 54.9458C6.4563 38.9476 5.98633 31.5011 4.22073 19.3766C3.82663 16.6703 3.59315 14.3667 3.70188 14.2576C3.81062 14.1484 6.11062 14.3993 8.813 14.8151C12.2775 15.3482 16.8122 15.5808 24.1905 15.6039L34.6545 15.6368L34.9284 17.2195C36.4309 25.8995 39.3036 37.8355 42.323 47.943C45.4233 58.3214 47.8654 64.8853 48.6264 64.8853C49.0379 64.8853 49.7698 63.1029 50.7599 59.6897C54.1697 47.9341 57.0428 32.6881 58.118 20.6431C58.4081 17.3942 58.7767 14.5828 58.9372 14.3957C59.0977 14.2085 61.446 14.394 64.1556 14.8078C67.6509 15.3416 72.2661 15.5718 80.0416 15.5999L91.0011 15.6396L90.7683 17.4467C90.6403 18.4407 90.1729 21.9986 89.7298 25.3532C88.5732 34.1095 88.5463 65.071 89.6857 76.1883C90.6947 86.0332 91.9134 94.2215 93.3846 101.04C94.0267 104.016 94.6662 107.086 94.8056 107.862L95.0592 109.273L81.6206 109.523C73.1482 109.68 66.3752 110.033 63.2927 110.478C60.6035 110.866 58.2399 111.083 58.0403 110.959C57.8406 110.835 58.0547 109.656 58.516 108.338C60.5383 102.562 62.358 89.7905 62.8404 77.9874C63.0945 71.7691 63.0577 71.2672 62.393 71.8981C61.4258 72.8163 56.3892 84.991 51.5065 98.2134C49.3255 104.119 47.3853 108.795 47.1949 108.604C47.0045 108.413 44.6442 102.361 41.9499 95.1551C36.2794 79.9896 32.9407 71.8882 32.3612 71.8882C31.0507 71.8882 33.5063 93.6857 36.0171 104.34C36.5048 106.41 36.9038 108.392 36.9038 108.745C36.9038 109.28 35.3155 109.387 27.4178 109.387C17.8104 109.387 9.67827 109.917 3.6807 110.932C0.434791 111.482 0.389814 111.476 0.663088 110.552V110.552ZM181.369 110.727C181.369 110.418 181.765 107.805 182.25 104.919C183.923 94.9546 185.415 72.827 185.418 57.9309L185.419 52.3318L181.031 52.6353L176.643 52.9389L176.74 42.6475L176.836 32.356H181.441H186.045L186.637 27.6122C188.09 15.9782 192.831 8.21133 200.785 4.43448C205.303 2.28924 208.218 1.67211 213.772 1.68508C217.839 1.69457 219.121 1.89778 222.969 3.14211C225.429 3.93741 227.537 4.68466 227.655 4.80267C227.772 4.92068 227.623 7.00064 227.323 9.4248C227.022 11.849 226.655 16.6279 226.506 20.0446C226.357 23.4613 226.185 26.2568 226.125 26.2568C226.064 26.2568 224.978 25.5573 223.713 24.7023C219.101 21.5866 214.438 22.2406 211.66 26.3929C210.224 28.539 209.333 32.0373 209.962 33.0591C210.207 33.4567 212.342 33.5552 217.997 33.43L225.698 33.2596L225.577 34.3891C225.51 35.0103 225.331 39.3545 225.179 44.0428L224.903 52.5671L221.25 52.1816C219.241 51.9696 215.775 51.7933 213.547 51.7897L209.497 51.7832L209.356 67.1443C209.203 83.9304 209.754 96.2724 211.054 105.203C211.516 108.374 211.822 111.041 211.735 111.129C211.648 111.218 209.445 111.037 206.84 110.727C202.287 110.185 188.107 110.366 183.282 111.027C181.916 111.214 181.369 111.128 181.369 110.727V110.727ZM231.324 110.684C231.324 110.58 231.831 108.488 232.452 106.034C233.998 99.9157 234.799 93.2773 235.375 81.8277C236.087 67.6692 235.066 47.0294 233.199 37.866C232.754 35.6783 232.545 33.7917 232.735 33.6736C232.925 33.5555 234.357 33.6921 235.916 33.9772C237.474 34.2623 243.408 34.552 249.101 34.621C258.872 34.7393 259.447 34.7933 259.367 35.5843C259.321 36.0451 258.967 38.8459 258.582 41.8083C256.132 60.6386 256.876 85.332 260.415 102.61C261.051 105.716 261.601 108.563 261.637 108.935C261.693 109.516 260.763 109.592 255.176 109.47C249.302 109.34 242.031 109.72 234.137 110.569C232.59 110.735 231.324 110.787 231.324 110.684V110.684ZM241.9 29.182C238.557 27.9356 235.735 25.3602 234.024 21.9933C232.632 19.2525 232.449 18.4953 232.452 15.4592C232.455 12.6966 232.687 11.5263 233.644 9.47347C237.136 1.97679 245.784 -1.30772 252.744 2.21922C255.881 3.8087 258.922 6.92619 260.228 9.89067C261.423 12.6015 261.505 17.0806 260.42 20.257C259.396 23.2518 256.205 26.847 253.2 28.392C250.347 29.8585 244.762 30.2489 241.9 29.182V29.182Z" fill="#EF95A7"/>
<path d="M366.338 145.066C363.073 144.629 358.999 143.442 356.195 142.113C352.691 140.452 350.348 138.167 348.698 134.801C347.328 132.007 347.221 131.463 347.216 127.253C347.212 123.087 347.328 122.467 348.64 119.688C350.322 116.124 353.106 113.163 356.224 111.623C358.071 110.71 359.132 110.518 362.288 110.522C366.761 110.529 368.765 111.362 371.432 114.326C373.439 116.555 373.513 117.354 371.751 117.743C369.196 118.306 367.471 121.572 368.418 124.05C368.802 125.054 370.955 126.104 372.631 126.104C380.121 126.104 385.279 114.871 385.785 97.4602C385.944 91.9973 385.306 91.3347 383.919 95.5207C382.292 100.428 379.256 104.395 375.838 106.079C373.223 107.368 367.228 107.439 363.632 106.224C353.823 102.91 347.599 94.5681 345.36 81.7313C344.488 76.7389 344.752 64.7507 345.853 59.2508C348.73 44.8847 355.861 35.8727 365.89 33.9283C372.168 32.7111 378.574 35.606 382.6 41.479C383.333 42.5493 384.126 43.425 384.362 43.425C384.991 43.425 384.885 40.7724 384.107 37.0621C383.731 35.2694 383.499 33.7273 383.591 33.6352C383.683 33.5431 385.154 33.8266 386.862 34.2652C389.399 34.9171 391.917 35.0631 400.654 35.0647C406.533 35.0659 411.343 35.1198 411.343 35.1846C411.343 35.2494 411.049 37.1808 410.69 39.4767C409.362 47.9727 408.204 68.9485 408.188 84.7644C408.167 106.975 406.113 118.653 400.453 128.75C397.574 133.884 392.361 138.953 387.49 141.353C380.284 144.905 373.725 146.056 366.338 145.066V145.066ZM380.279 85.5253C381.856 84.3537 383.35 82.0331 383.937 79.8461C384.715 76.9464 384.215 61.443 383.243 58.3343C381.304 52.1272 377.65 50.0526 374.604 53.4295C371.993 56.3252 370.389 62.3303 370.389 69.2099C370.389 80.3258 373.268 87.3263 377.554 86.6282C378.428 86.4858 379.654 85.9894 380.279 85.5253V85.5253ZM121.341 112.977C116.389 111.737 110.651 107.061 108.036 102.136C104.076 94.6783 102.211 83.9924 102.806 72.1753C103.501 58.3836 107.011 47.8503 113.081 41.3357C118.554 35.4621 124.944 33.5611 131.929 35.7283C135.658 36.8851 138.448 38.6987 140.903 41.5606C143.333 44.3931 144.242 44.584 143.862 42.1826C143.715 41.2507 143.455 39.2853 143.284 37.8149C143.009 35.451 143.059 35.1743 143.71 35.4254C145.383 36.0699 156.785 36.7525 162.33 36.5401C165.604 36.4147 168.362 36.3916 168.459 36.4887C168.556 36.5859 168.361 38.2371 168.026 40.1581C166.461 49.1348 165.896 57.2784 165.872 71.2105C165.843 88.151 166.589 96.0308 169.485 109.387L169.73 110.517H161.261C156.602 110.517 151.093 110.618 149.017 110.743L145.243 110.969L145.192 103.101C145.135 94.4878 144.685 93.0816 143.328 97.2787C141.245 103.724 137.041 109.492 132.697 111.865C130.71 112.951 129.683 113.195 126.694 113.295C124.711 113.36 122.302 113.217 121.341 112.977H121.341ZM139.27 88.3499C140.607 87.4706 142.052 84.7593 142.876 81.5837C143.402 79.5555 143.563 76.4113 143.555 68.2918C143.544 56.6261 143.25 55.0548 140.7 53.0412C137.71 50.6797 133.313 51.7041 131.268 55.239C129.072 59.0344 128.539 62.2593 128.517 71.8882C128.499 80.0366 128.574 80.8905 129.524 83.2585C130.801 86.4434 132.059 88.0785 133.851 88.8812C135.399 89.5746 137.76 89.3431 139.27 88.3499V88.3499ZM446.221 112.978C441.895 112.533 439.548 111.839 435.925 109.936C426.247 104.854 420.723 94.1347 419.425 77.9238C418.59 67.4835 420.101 58.2541 423.927 50.4279C428.437 41.2037 434.797 35.7253 443.63 33.4577C453.514 30.9198 463.654 33.5473 470.5 40.4209C473.172 43.1033 474.149 44.5318 476.267 48.8466C478.59 53.5819 479.359 55.9623 481.081 63.7558C481.898 67.4528 481.471 78.3337 480.305 83.5342C478.42 91.9433 476.096 97.4769 472.352 102.478C466.417 110.403 457.197 114.108 446.221 112.978ZM453.647 90.4485C455.167 89.3713 456.58 87.2077 457.665 84.2961C461.038 75.2472 458.9 56.3612 454.038 52.2544C449.886 48.7471 445.452 51.8292 443.342 59.6897C439.514 73.9456 442.291 89.7423 448.922 91.4404C450.275 91.7869 452.384 91.3442 453.647 90.4485V90.4485ZM305.582 111.906C305.582 111.729 306.099 109.534 306.732 107.029C309.802 94.8724 311.176 81.7171 310.875 67.3702C310.653 56.8091 310.109 53.8019 308.044 51.7291C305.046 48.7193 299.704 52.2751 296.956 59.1103C295.965 61.5764 295.907 62.2796 295.919 71.6623C295.936 84.1291 296.958 94.2097 299.307 105.074C299.788 107.299 300.181 109.179 300.181 109.253C300.181 109.327 296.181 109.39 291.293 109.393C286.404 109.395 279.68 109.687 276.351 110.041C270.548 110.657 269.317 110.629 269.77 109.893C270.117 109.329 271.305 99.1798 271.918 91.5413C272.773 80.8996 272.637 44.9304 271.716 37.7776C271.332 34.7957 271.091 32.28 271.179 32.187C271.268 32.0941 273.728 32.2937 276.647 32.6305C279.566 32.9673 285.549 33.2247 289.943 33.2025C294.504 33.1794 297.931 33.3395 297.931 33.5756C297.931 33.8031 297.697 35.41 297.412 37.1465C297.092 39.0871 297.053 40.4654 297.31 40.723C297.566 40.9805 298.814 40.1106 300.546 38.4657C305.857 33.4234 310.839 31.0949 316.383 31.0632C325.898 31.0089 330.877 36.5761 333.294 49.9761C333.855 53.0841 334.113 58.833 334.39 74.3731C334.741 94.1249 335.117 100.124 336.437 107.097C336.787 108.943 336.99 110.537 336.889 110.639C336.788 110.74 333.297 110.803 329.132 110.778C322.281 110.737 319.68 110.883 308.845 111.916C307.05 112.088 305.582 112.083 305.582 111.906L305.582 111.906ZM0.710526 110.969C1.55987 108.746 4.09462 95.0221 4.9157 88.2007C6.47465 75.2491 6.87552 66.3927 6.62295 50.4822C6.3948 36.1096 5.81061 28.04 4.31314 18.5762C3.97893 16.4641 3.7799 14.6545 3.87085 14.5549C3.9618 14.4553 6.88214 14.7263 10.3605 15.1572C14.8881 15.718 19.1978 15.905 25.5307 15.8155L34.3767 15.6905L35.8465 22.8937C38.6959 36.8577 44.1497 56.1155 47.4595 63.9001C48.8238 67.1088 49.339 66.0881 52.435 54.0422C55.5186 42.0445 57.4102 31.2431 58.4653 19.6084C58.6955 17.0699 58.9928 14.8162 59.1258 14.6001C59.2589 14.3839 61.0472 14.5092 63.0999 14.8785C65.7371 15.353 70.3725 15.5632 78.8994 15.5948L90.9668 15.6396L90.6864 17.142C86.6033 39.0178 88.0737 79.7586 93.829 104.21C94.451 106.853 94.9599 109.048 94.9598 109.088C94.9597 109.129 89.9473 109.169 83.8211 109.178C75.9971 109.19 70.5675 109.442 65.5745 110.024C61.665 110.48 58.39 110.777 58.2967 110.683C58.2035 110.589 58.5947 108.887 59.1662 106.9C59.7376 104.914 60.5326 101.366 60.9328 99.0179C62.5747 89.3821 63.7616 71.6099 62.7816 71.3362C62.5341 71.267 61.7828 72.3287 61.1121 73.6954C59.5272 76.9249 52.4397 94.8189 49.6976 102.514C48.5211 105.816 47.402 108.357 47.2107 108.162C47.0195 107.966 44.7098 102.034 42.0782 94.9788C36.4565 79.9084 32.807 71.2492 32.1784 71.4899C30.7421 72.04 34.0218 98.7345 36.6957 108.258C36.9442 109.143 36.7273 109.162 26.2381 109.19C17.0796 109.214 8.90829 109.781 1.57526 110.9C1.32773 110.938 0.954215 111.172 0.745221 111.42C0.534693 111.671 0.51922 111.469 0.710526 110.969ZM181.502 110.243C182.033 108.065 183.158 100.922 183.594 96.9629C185.028 83.9573 186.215 53.6489 185.333 52.582C184.839 51.9846 182.913 52.0204 178.416 52.7104L177.038 52.9218L177.066 42.7246L177.094 32.5273L181.517 32.6369C184.709 32.716 186.038 32.5866 186.294 32.1717C186.488 31.8556 186.762 29.938 186.902 27.9103C187.822 14.5727 195.268 5.09783 206.863 2.50803C211.922 1.37829 218.646 1.7968 223.673 3.55417C228.053 5.08519 227.744 4.30549 226.902 11.7041C226.612 14.2608 226.374 18.4795 226.374 21.0788C226.374 24.7919 226.241 25.805 225.754 25.805C225.413 25.805 224.856 25.4678 224.516 25.0557C222.774 22.9428 217.294 21.9592 214.717 23.297C211.703 24.8614 209.486 28.8426 209.797 32.1301L209.947 33.7114L217.769 33.5388L225.591 33.3661L225.24 36.4755C225.046 38.1856 224.866 42.4311 224.84 45.9099L224.793 52.235L223.67 52.2002C223.053 52.181 219.978 51.9093 216.837 51.5965C213.696 51.2836 210.739 51.1507 210.267 51.3012C209.514 51.5411 209.373 52.1979 209.117 56.6487C208.701 63.9037 208.761 75.089 209.278 86.5715C209.669 95.2614 210.105 99.9756 211.359 109.115L211.662 111.327L210.355 111.043C205.81 110.058 196.779 109.688 190.452 110.227C186.818 110.536 183.258 110.91 182.541 111.057C181.347 111.303 181.261 111.235 181.502 110.243V110.243ZM231.508 110.014C235.045 100.807 236.724 76.8509 235.351 55.1717C234.916 48.3056 233.576 37.4658 232.843 34.8897C232.539 33.8193 232.559 33.8121 234.968 34.133C236.305 34.3113 242.26 34.5541 248.201 34.6726L259.002 34.888L258.941 36.3328C258.908 37.1274 258.538 40.5222 258.12 43.8768C257.687 47.3473 257.25 55.0534 257.106 61.7566C256.753 78.212 257.762 91.0874 260.379 103.514C260.98 106.372 261.474 108.862 261.475 109.048C261.476 109.235 257.478 109.391 252.589 109.395C244.568 109.402 238.832 109.751 233.165 110.578C231.349 110.842 231.208 110.795 231.508 110.014H231.508ZM243.348 29.378C239.349 28.4325 235.83 25.4865 233.954 21.5129C231.338 15.9695 232.682 8.91368 237.119 4.89711C239.893 2.38621 243.432 0.956177 246.871 0.956177C249.234 0.956177 250.234 1.22644 252.894 2.58307C258.088 5.23175 261.027 9.76382 261.027 15.1227C261.027 24.685 252.519 31.5457 243.348 29.378Z" fill="#ED859A"/>
<path d="M367.688 145.088C365.832 144.924 364.617 144.734 364.988 144.666C365.359 144.598 364.288 144.268 362.608 143.933C352.222 141.859 346.948 135.536 347.548 125.878C348.192 115.508 356.954 108.561 366.088 111.176C369.85 112.253 374.504 117.52 371.694 117.52C371.174 117.52 370.06 118.211 369.218 119.056C366.654 121.63 367.326 125.014 370.616 126.105C372.53 126.739 374.49 126.375 377.012 124.919C380.555 122.874 383.168 117.803 384.808 109.786C385.775 105.062 386.536 93.4544 385.975 91.9864C385.541 90.8528 384.505 91.8731 384.147 93.7847C383.389 97.8456 379.206 104.007 376.121 105.608C373.916 106.753 369.749 107.215 366.646 106.659C356.032 104.757 348 95.3512 345.659 82.0835C344.979 78.2283 345.081 66.5157 345.839 61.4968C347.879 47.9942 353.895 38.5054 362.513 35.1992C366.569 33.6427 372.024 33.7338 375.21 35.4111C378.149 36.9584 380.258 38.8049 382.341 41.6544C385.198 45.5612 385.878 44.3586 384.525 37.7909C384.131 35.8814 383.892 34.2364 383.993 34.1353C384.093 34.0342 385.681 34.3004 387.521 34.7269C390.156 35.3378 392.989 35.5001 400.879 35.4922C406.387 35.4867 410.891 35.592 410.889 35.7263C410.888 35.8605 410.693 37.1902 410.458 38.6811C409.14 47.0208 408.323 61.4337 407.743 86.5715C407.391 101.81 407.154 106.004 406.404 110.222C404.317 121.97 399.846 131.198 393.461 136.933C390.333 139.744 383.818 143.085 379.934 143.87C378.378 144.184 377.247 144.585 377.422 144.76C377.596 144.936 376.642 145.082 375.301 145.085C373.961 145.09 372.459 145.158 371.964 145.238C371.469 145.319 369.545 145.251 367.688 145.088V145.088ZM379.871 86.1035C381.834 85.0844 383.764 82.123 384.373 79.1968C385.068 75.8578 384.641 62.1798 383.74 58.9392C382.376 54.0301 380.201 51.5573 377.246 51.5573C374.818 51.5573 372.356 55.3157 370.811 61.3798C368.842 69.1072 370.379 81.3209 373.839 85.4491C374.743 86.5278 375.325 86.7974 376.751 86.7974C377.732 86.7974 379.135 86.4852 379.871 86.1035ZM120.018 112.113C109.55 108.755 103.86 97.5888 103.203 79.1169C102.575 61.4585 106.533 47.9018 114.533 40.3056C118.008 37.0065 121.266 35.5792 125.791 35.3731C131.976 35.0914 136.769 37.2692 141.249 42.3956C144.26 45.8425 144.728 45.413 143.862 39.9939C143.509 37.7809 143.267 35.916 143.325 35.8495C143.383 35.783 144.929 35.9485 146.761 36.2172C148.592 36.4859 154.209 36.7151 159.244 36.7264C168.376 36.7469 168.396 36.7492 168.13 37.714C167.379 40.435 166.018 53.5845 165.595 62.2062C164.856 77.2791 166.097 96.0115 168.51 106.225C169.567 110.697 169.908 110.397 164.155 110.053C160.135 109.812 149.006 110.315 146.115 110.868C145.733 110.941 145.579 108.825 145.548 103.062C145.499 93.6959 145.528 94.0262 144.748 94.0262C144.384 94.0262 143.632 95.4597 142.911 97.5276C140.372 104.814 135.643 110.73 131.124 112.276C128.308 113.239 123.301 113.166 120.018 112.113V112.113ZM139.35 88.6411C141.152 87.5382 142.939 83.8658 143.545 80.0205C144.28 75.3573 144.147 59.3965 143.35 56.7038C142.396 53.4763 140.603 51.9107 137.573 51.6585C134.329 51.3884 132.684 52.2945 130.975 55.2944C128.867 58.9928 128.096 63.3283 128.065 71.6622C128.036 79.5468 128.53 82.5713 130.374 85.8092C132.37 89.3107 136.254 90.5364 139.35 88.6411ZM445.771 112.75C445.276 112.635 443.757 112.321 442.396 112.052C435.029 110.597 428.314 105.111 424.654 97.5575C420.194 88.354 418.421 75.3472 420.101 64.1591C422.515 48.0789 431.007 37.04 443.521 33.714C447.104 32.7616 454.819 32.7584 458.357 33.7079C469.013 36.5676 476.081 44.8869 479.564 58.6709C480.161 61.0344 480.653 63.7045 480.657 64.6044C480.662 65.8272 480.774 66.0695 481.1 65.5631C481.392 65.109 481.536 67.1222 481.536 71.6623C481.536 75.3896 481.38 78.1932 481.19 77.8925C480.997 77.5877 480.603 79.1237 480.299 81.3646C479.283 88.8515 476.145 96.9596 472.251 102.16C468.836 106.721 463.923 110.094 458.148 111.842C455.739 112.572 447.578 113.17 445.771 112.75V112.75ZM453.517 90.8795C455.331 89.7689 456.94 87.3499 458.187 83.8602C458.94 81.7531 459.205 79.7364 459.38 74.7976C459.756 64.2141 458.002 56.0526 454.575 52.436C453.121 50.9017 452.618 50.6537 450.957 50.6537C447.061 50.6537 444.555 53.6607 442.84 60.3917C439.666 72.8477 441.703 87.6206 447.044 90.8902C448.876 92.0116 451.675 92.007 453.517 90.8795V90.8795ZM306.032 111.639C306.032 111.353 306.451 109.469 306.964 107.453C309.524 97.3872 310.93 86.3463 311.291 73.4694C311.658 60.3837 310.795 54.2575 308.188 51.4568C307.06 50.2438 306.7 50.1142 305.069 50.3338C300.145 50.9968 295.963 57.6695 295.383 65.7889C294.829 73.547 296.489 92.6979 298.634 103.283C299.237 106.262 299.731 108.803 299.73 108.93C299.729 109.057 295.324 109.172 289.941 109.185C284.558 109.198 277.964 109.473 275.288 109.797C272.611 110.12 270.35 110.313 270.262 110.224C270.174 110.136 270.277 109.127 270.49 107.982C271.324 103.499 272.29 90.6371 272.793 77.32C273.331 63.039 272.883 44.3992 271.8 36.0276C271.546 34.0712 271.399 32.4219 271.471 32.3626C271.544 32.3033 273.831 32.5369 276.554 32.8819C279.599 33.2676 284.595 33.461 289.533 33.3843L297.563 33.2596L297.221 36.1963C296.495 42.4349 296.756 42.6808 300.342 39.1382C310.377 29.224 322.773 28.5801 328.73 37.6636C332.576 43.5291 333.932 51.7626 333.941 69.3135C333.951 87.2266 334.833 101.393 336.424 109.161L336.702 110.517L327.78 110.538C319.96 110.557 309.14 111.279 306.819 111.936C306.386 112.059 306.032 111.925 306.032 111.639V111.639ZM1.35013 110.602C1.35013 110.471 1.84789 108.052 2.45626 105.227C3.82861 98.8551 5.60212 86.4255 6.3752 77.7615C6.72476 73.8439 6.95734 64.6723 6.95377 54.9458C6.94779 38.6455 6.47509 31.0795 4.73 19.3522C4.39196 17.0805 4.19156 15.0981 4.28466 14.9468C4.37777 14.7956 6.33773 14.9659 8.64013 15.3253C11.3096 15.742 16.6959 15.9991 23.5063 16.035L34.1863 16.0913L34.6658 18.5762C37.3565 32.5211 40.9468 46.2813 44.8036 57.4307C48.1169 67.009 48.5957 67.5565 50.1043 63.4923C51.4356 59.906 54.7804 46.4219 56.0173 39.6546C57.3044 32.6134 58.9561 19.8435 58.9561 16.9345C58.9561 15.8789 59.108 14.9274 59.2936 14.8201C59.4793 14.7129 61.6564 14.9391 64.1316 15.3228C67.2004 15.7985 72.117 16.0317 79.5863 16.0559L90.5405 16.0913L90.2708 17.6726C88.7238 26.7428 88.4586 31.481 88.4502 50.2019C88.4433 65.5725 88.6028 70.9356 89.2499 77.0838C90.4526 88.511 92.3892 100.296 94.2616 107.584L94.5528 108.717L84.2927 108.771C75.1822 108.82 61.7896 109.786 59.2277 110.581C58.5059 110.805 58.4224 110.681 58.6861 109.778C60.275 104.336 61.2876 99.331 62.0655 93.0732C63.0333 85.2872 63.9424 72.0589 63.5757 71.0975C63.0811 69.801 62.0311 70.7186 60.7322 73.5824C58.6495 78.1741 52.652 93.3838 49.954 100.916C48.6411 104.581 47.4461 107.576 47.2984 107.571C47.1507 107.567 45.8332 104.263 44.3706 100.23C40.961 90.8277 37.5759 82.0416 34.8786 75.593C33.268 71.7426 32.5631 70.5246 32.0107 70.6375C31.4092 70.7604 31.3 71.3098 31.4002 73.7096C31.7442 81.9481 33.5336 95.5026 35.3578 103.688C35.9606 106.392 36.4538 108.634 36.4538 108.67C36.4538 108.706 32.1502 108.755 26.8903 108.78C18.5319 108.819 5.59731 109.77 2.36548 110.585C1.80704 110.725 1.35013 110.733 1.35013 110.602ZM181.99 109.559C184.147 99.0863 185.86 76.6701 185.867 58.8308L185.87 51.8726L181.337 52.1498L176.805 52.427L177.106 51.0474C177.409 49.6635 177.526 34.7465 177.244 33.4974C177.119 32.9443 177.892 32.8297 181.813 32.8197L186.532 32.8077L187.135 27.838C188.192 19.1337 190.78 13.2011 195.456 8.76119C200.076 4.37481 206.017 2.20519 213.547 2.15362C217.434 2.12701 218.684 2.32469 222.715 3.60254L227.382 5.08227L227.106 7.19831C226.387 12.7281 225.938 18.2341 225.931 21.6258C225.927 23.6758 225.809 25.3531 225.668 25.3531C225.528 25.3531 224.769 24.8729 223.981 24.286C221.196 22.2119 217.742 21.646 214.968 22.8094C211.849 24.1176 208.966 29.0339 209.347 32.3926L209.497 33.7114H217.373C224.154 33.7114 225.223 33.8055 225.067 34.3891C224.967 34.7618 224.79 38.8887 224.675 43.5599L224.464 52.053L221.256 51.6922C219.491 51.4938 216.022 51.3314 213.547 51.3314H209.047L208.909 67.822C208.764 85.0998 209.265 96.505 210.562 105.471L211.335 110.817L209.291 110.509C202.382 109.466 190.836 109.492 183.683 110.565L181.722 110.86L181.99 109.559ZM231.984 109.572C232.182 109.098 232.723 107.185 233.185 105.321C236.732 91.0243 237.136 58.6502 234.004 39.625C233.517 36.6654 233.171 34.1957 233.234 34.1368C233.297 34.0779 234.564 34.2454 236.049 34.5091C237.535 34.7727 243.278 35.006 248.812 35.0275L258.874 35.0667L258.592 37.3257C255.588 61.3429 256.038 83.5026 259.923 102.936C260.53 105.973 261.027 108.616 261.028 108.81C261.028 109.003 258.041 109.097 254.39 109.019C248.419 108.89 239.16 109.397 233.666 110.153C231.78 110.413 231.651 110.368 231.984 109.572V109.572ZM241.836 28.4785C234.269 25.5574 230.669 16.6193 234.168 9.44074C235.677 6.34501 238.749 3.49322 241.714 2.43594C242.895 2.01481 243.763 1.50956 243.642 1.31317C243.521 1.11678 245.004 0.959214 246.937 0.963019C249.372 0.967812 250.244 1.10442 249.776 1.4079C249.22 1.7688 249.263 1.84707 250.025 1.85277C251.582 1.86443 255.506 4.08793 257.016 5.81375C260.9 10.2549 261.76 16.5064 259.196 21.6578C255.975 28.1296 248.519 31.0588 241.836 28.4785Z" fill="#EA6983"/>
</svg>
